<svg id="All_glyphs" data-name="All glyphs" xmlns="http://www.w3.org/2000/svg" viewBox="0 0 89.61 88"><defs><style>.cls-1{fill:#fff;}</style></defs><title>google-icon</title><path class="cls-1" d="M-1159.38,3741.67c0,7.47,2.49,12.86,7.41,16a21.12,21.12,0,0,0,11.13,3c.59,0,1.06,0,1.39,0a14.35,14.35,0,0,0,2.95,10h-.17c-6.45,0-27.47,1.35-27.47,18.63,0,17.59,19.31,18.48,23.18,18.48h1.27a35.76,35.76,0,0,0,14.88-3.21c7.74-3.76,11.67-10.29,11.67-19.42,0-8.83-6-14.08-10.35-17.92-2.67-2.34-5-4.36-5-6.32s1.68-3.5,3.81-5.41c3.45-3.08,6.69-7.47,6.69-15.75,0-7.29-.95-12.18-6.77-15.28a20.61,20.61,0,0,1,3.81-.68c3.15-.43,7.77-.92,7.77-3.5v-.5h-23C-1136.36,3719.73-1159.38,3720.58-1159.38,3741.67Zm37.12,45.06c.44,7-5.58,12.22-14.61,12.88s-16.73-3.46-17.17-10.48a11.61,11.61,0,0,1,4.18-9.32,19,19,0,0,1,11.39-4.64c.52,0,1-.05,1.55-.05C-1128.43,3775.12-1122.68,3780.11-1122.26,3786.73Zm-6-49.88c2.26,7.93-1.15,16.23-6.58,17.76a7.11,7.11,0,0,1-1.92.26c-5,0-9.9-5-11.72-12a17.3,17.3,0,0,1,.23-10.57c1.15-3.22,3.21-5.39,5.81-6.12a7.07,7.07,0,0,1,1.92-.27C-1134.52,3726-1130.66,3728.45-1128.27,3736.85Zm38.74,17.28v-15h-9.5v15h-15v9.5h15v15h9.5v-15h15v-9.5Z" transform="translate(1164.13 -3719.72)"/></svg>