<svg xmlns="http://www.w3.org/2000/svg" xmlns:xlink="http://www.w3.org/1999/xlink" preserveAspectRatio="xMidYMid" width="38.531" height="38.09" viewBox="0 0 38.531 38.09">
  <defs>
    <style>
      .cls-1 {
        fill: #000;
        fill-rule: evenodd;
      }
    </style>
  </defs>
  <path d="M35.091,16.075 L3.428,16.075 C1.527,16.075 -0.014,14.533 -0.014,12.633 C-0.014,10.732 1.527,9.191 3.428,9.191 L7.323,9.191 C7.384,8.971 7.463,8.753 7.583,8.546 L11.713,1.392 C12.473,0.075 14.157,-0.376 15.474,0.384 C16.791,1.145 17.242,2.829 16.482,4.146 L13.568,9.191 L24.951,9.191 L22.038,4.146 C21.277,2.829 21.729,1.145 23.046,0.384 C24.362,-0.376 26.046,0.075 26.807,1.392 L30.937,8.546 C31.056,8.753 31.136,8.971 31.197,9.191 L35.091,9.191 C36.992,9.191 38.533,10.732 38.533,12.633 C38.533,14.533 36.992,16.075 35.091,16.075 ZM34.509,38.101 L4.011,38.101 L2.819,17.451 L35.700,17.451 L34.509,38.101 ZM12.376,24.334 C12.376,23.574 11.760,22.958 11.000,22.958 C10.239,22.958 9.623,23.574 9.623,24.334 L9.623,32.594 C9.623,33.355 10.239,33.971 11.000,33.971 C11.760,33.971 12.376,33.355 12.376,32.594 L12.376,24.334 ZM20.636,24.334 C20.636,23.574 20.020,22.958 19.260,22.958 C18.499,22.958 17.883,23.574 17.883,24.334 L17.883,32.594 C17.883,33.355 18.499,33.971 19.260,33.971 C20.020,33.971 20.636,33.355 20.636,32.594 L20.636,24.334 ZM28.896,24.334 C28.896,23.574 28.280,22.958 27.520,22.958 C26.759,22.958 26.143,23.574 26.143,24.334 L26.143,32.594 C26.143,33.355 26.759,33.971 27.520,33.971 C28.280,33.971 28.896,33.355 28.896,32.594 L28.896,24.334 Z" class="cls-1"/>
</svg>
