<svg xmlns="http://www.w3.org/2000/svg" xmlns:xlink="http://www.w3.org/1999/xlink" preserveAspectRatio="xMidYMid" width="40.375" height="33.62" viewBox="0 0 40.375 33.62">
  <defs>
    <style>
      .cls-1 {
        fill: #000;
        fill-rule: evenodd;
      }
    </style>
  </defs>
  <path d="M36.324,33.627 L4.035,33.627 C2.549,33.627 -0.001,32.423 -0.001,30.937 C-0.001,29.451 1.204,28.246 2.690,28.246 L37.669,28.246 C39.155,28.246 40.360,29.451 40.360,30.937 C40.360,32.423 37.810,33.627 36.324,33.627 ZM24.216,30.937 L16.144,30.937 C15.400,30.937 14.798,31.238 14.798,31.609 C14.798,31.981 15.400,32.282 16.144,32.282 L24.216,32.282 C24.959,32.282 25.561,31.981 25.561,31.609 C25.561,31.238 24.959,30.937 24.216,30.937 ZM14.934,13.874 L17.417,16.368 L25.420,8.330 C25.943,7.805 26.791,7.805 27.314,8.330 L29.208,10.233 C29.731,10.758 29.731,11.610 29.208,12.135 L18.790,22.600 C18.341,23.050 17.665,23.090 17.148,22.768 C16.707,22.878 16.226,22.782 15.882,22.437 L11.146,17.680 C10.623,17.155 10.623,16.303 11.146,15.777 L13.040,13.874 C13.563,13.349 14.411,13.349 14.934,13.874 ZM33.633,4.029 L6.726,4.029 L6.726,25.555 L2.690,25.555 L2.690,22.864 L2.937,22.864 C2.787,22.442 2.690,21.993 2.690,21.519 L2.690,4.029 C2.690,1.800 4.497,-0.007 6.726,-0.007 L33.633,-0.007 C35.862,-0.007 37.669,1.800 37.669,4.029 L37.669,21.519 C37.669,21.993 37.572,22.442 37.422,22.864 L37.669,22.864 L37.669,25.555 L33.633,25.555 L33.633,4.029 Z" class="cls-1"/>
</svg>
