<svg xmlns="http://www.w3.org/2000/svg" xmlns:xlink="http://www.w3.org/1999/xlink" preserveAspectRatio="xMidYMid" width="34.094" height="45.88" viewBox="0 0 34.094 45.88">
  <defs>
    <style>
      .cls-1 {
        fill: #777;
        fill-rule: evenodd;
      }
    </style>
  </defs>
  <path d="M30.503,45.889 C28.519,45.889 26.910,44.284 26.910,42.303 L26.910,3.571 C26.910,1.591 28.519,-0.015 30.503,-0.015 C32.488,-0.015 34.096,1.591 34.096,3.571 L34.096,42.303 C34.096,44.284 32.488,45.889 30.503,45.889 ZM17.053,45.889 C15.069,45.889 13.460,44.284 13.460,42.303 L13.460,16.351 C13.460,14.371 15.069,12.765 17.053,12.765 C19.038,12.765 20.646,14.371 20.646,16.351 L20.646,42.303 C20.646,44.284 19.038,45.889 17.053,45.889 ZM3.600,45.889 C1.616,45.889 0.007,44.284 0.007,42.303 L0.007,29.135 C0.007,27.153 1.616,25.548 3.600,25.548 C5.585,25.548 7.193,27.153 7.193,29.135 L7.193,42.303 C7.193,44.284 5.585,45.889 3.600,45.889 Z" class="cls-1"/>
</svg>
