<svg xmlns="http://www.w3.org/2000/svg" xmlns:xlink="http://www.w3.org/1999/xlink" preserveAspectRatio="xMidYMid" width="45.969" height="46.53" viewBox="0 0 45.969 46.53">
  <defs>
    <style>
      .cls-1 {
        fill: #777;
        fill-rule: evenodd;
      }
    </style>
  </defs>
  <path d="M45.977,2.057 C45.981,1.435 45.704,0.844 45.222,0.452 C44.740,0.059 44.106,-0.094 43.498,0.036 L16.539,5.800 C15.599,6.001 14.925,6.828 14.918,7.790 L14.732,31.944 C13.230,31.050 11.411,30.517 9.447,30.502 L9.360,30.502 C4.227,30.502 0.024,34.068 -0.009,38.452 C-0.043,42.875 4.144,46.505 9.324,46.546 L9.410,46.546 C14.543,46.546 18.747,42.980 18.781,38.596 L18.781,38.596 L18.781,38.596 L18.943,17.541 L41.796,12.655 L41.692,26.180 C40.189,25.286 38.370,24.753 36.406,24.738 L36.319,24.737 C31.186,24.737 26.982,28.304 26.949,32.688 C26.915,37.110 31.103,40.741 36.283,40.782 L36.368,40.782 C41.102,40.782 45.037,37.747 45.650,33.838 C45.701,33.663 45.736,33.482 45.738,33.291 L45.977,2.057 ZM9.410,42.444 L9.355,42.443 C6.485,42.422 4.074,40.608 4.090,38.483 C4.106,36.344 6.471,34.604 9.360,34.604 L9.415,34.604 C12.286,34.625 14.698,36.440 14.682,38.565 C14.665,40.704 12.300,42.444 9.410,42.444 ZM18.967,14.390 L19.005,9.467 L41.857,4.581 L41.820,9.504 L18.967,14.390 ZM36.368,36.680 L36.314,36.679 C33.444,36.657 31.033,34.843 31.049,32.719 C31.065,30.580 33.429,28.839 36.319,28.839 L36.374,28.839 C39.246,28.861 41.657,30.675 41.641,32.800 C41.625,34.939 39.260,36.680 36.368,36.680 Z" class="cls-1"/>
</svg>
