<svg xmlns="http://www.w3.org/2000/svg" xmlns:xlink="http://www.w3.org/1999/xlink" preserveAspectRatio="xMidYMid" width="49.16" height="47.03" viewBox="0 0 49.16 47.03">
  <defs>
    <style>
      .cls-1 {
        fill: #777;
        fill-rule: evenodd;
      }
    </style>
  </defs>
  <path d="M38.444,47.022 C38.034,47.022 37.624,46.905 37.264,46.672 L24.585,38.440 L11.906,46.672 C11.150,47.164 10.168,47.135 9.441,46.598 C8.715,46.063 8.397,45.134 8.642,44.264 L12.613,30.160 L0.761,20.122 C0.089,19.552 -0.172,18.632 0.101,17.794 C0.374,16.956 1.127,16.367 2.005,16.304 L16.219,15.279 L22.614,1.257 C22.967,0.485 23.737,-0.010 24.585,-0.010 C25.434,-0.010 26.204,0.485 26.556,1.257 L32.951,15.279 L47.165,16.304 C48.043,16.367 48.796,16.956 49.069,17.794 C49.342,18.632 49.081,19.552 48.409,20.122 L36.557,30.160 L40.529,44.264 C40.774,45.134 40.455,46.063 39.729,46.598 C39.348,46.880 38.896,47.022 38.444,47.022 ZM24.585,33.687 C24.996,33.687 25.406,33.803 25.764,34.036 L34.798,39.901 L32.009,29.994 C31.778,29.177 32.046,28.300 32.694,27.750 L41.553,20.248 L31.359,19.511 C30.569,19.455 29.873,18.971 29.544,18.249 L24.585,7.380 L19.627,18.249 C19.298,18.971 18.602,19.455 17.811,19.511 L7.618,20.248 L16.476,27.750 C17.124,28.300 17.392,29.177 17.161,29.994 L14.372,39.901 L23.406,34.036 C23.765,33.803 24.175,33.687 24.585,33.687 Z" class="cls-1"/>
</svg>
