<svg xmlns="http://www.w3.org/2000/svg" xmlns:xlink="http://www.w3.org/1999/xlink" preserveAspectRatio="xMidYMid" width="18.687" height="29.88" viewBox="0 0 18.687 29.88">
  <defs>
    <style>
      .cls-1 {
        fill: #ececec;
        fill-rule: evenodd;
      }
    </style>
  </defs>
  <path d="M16.806,29.868 L1.879,29.868 C0.849,29.868 0.013,29.033 0.013,28.002 L0.013,1.880 C0.013,0.850 0.849,0.015 1.879,0.015 L16.806,0.015 C17.836,0.015 18.672,0.850 18.672,1.880 L18.672,28.002 C18.672,29.033 17.836,29.868 16.806,29.868 ZM9.343,28.935 C9.858,28.935 10.276,28.517 10.276,28.002 C10.276,27.487 9.858,27.069 9.343,27.069 C8.827,27.069 8.410,27.487 8.410,28.002 C8.410,28.517 8.827,28.935 9.343,28.935 ZM13.541,1.880 L5.144,1.880 C4.887,1.880 4.678,2.089 4.678,2.347 C4.678,2.604 4.887,2.813 5.144,2.813 L13.541,2.813 C13.798,2.813 14.007,2.604 14.007,2.347 C14.007,2.089 13.798,1.880 13.541,1.880 ZM16.806,4.679 L1.879,4.679 L1.879,26.136 L16.806,26.136 L16.806,4.679 Z" class="cls-1"/>
</svg>
