<svg xmlns="http://www.w3.org/2000/svg" xmlns:xlink="http://www.w3.org/1999/xlink" preserveAspectRatio="xMidYMid" width="24.969" height="19.97" viewBox="0 0 24.969 19.97">
  <defs>
    <style>
      .cls-1 {
        fill: #ececec;
        fill-rule: evenodd;
      }
    </style>
  </defs>
  <path d="M22.464,19.979 L2.490,19.979 C1.111,19.979 -0.007,18.861 -0.007,17.482 L-0.007,2.501 C-0.007,1.122 1.111,0.004 2.490,0.004 L22.464,0.004 C23.843,0.004 24.961,1.122 24.961,2.501 L24.961,17.482 C24.961,18.861 23.843,19.979 22.464,19.979 ZM11.645,5.830 C11.645,5.371 11.272,4.998 10.813,4.998 L2.490,4.998 C2.030,4.998 1.658,5.371 1.658,5.830 L1.658,14.153 C1.658,14.612 2.030,14.985 2.490,14.985 L10.813,14.985 C11.272,14.985 11.645,14.612 11.645,14.153 L11.645,5.830 ZM22.464,5.830 L14.974,5.830 C14.514,5.830 14.142,6.203 14.142,6.662 C14.142,7.122 14.514,7.495 14.974,7.495 L22.464,7.495 C22.924,7.495 23.297,7.122 23.297,6.662 C23.297,6.203 22.924,5.830 22.464,5.830 ZM22.464,9.159 L14.974,9.159 C14.514,9.159 14.142,9.532 14.142,9.991 C14.142,10.451 14.514,10.824 14.974,10.824 L22.464,10.824 C22.924,10.824 23.297,10.451 23.297,9.991 C23.297,9.532 22.924,9.159 22.464,9.159 ZM22.464,12.488 L14.974,12.488 C14.514,12.488 14.142,12.861 14.142,13.321 C14.142,13.780 14.514,14.153 14.974,14.153 L22.464,14.153 C22.924,14.153 23.297,13.780 23.297,13.321 C23.297,12.861 22.924,12.488 22.464,12.488 Z" class="cls-1"/>
</svg>
