<svg xmlns="http://www.w3.org/2000/svg" xmlns:xlink="http://www.w3.org/1999/xlink" preserveAspectRatio="xMidYMid" width="24.969" height="20" viewBox="0 0 24.969 20">
  <defs>
    <style>
      .cls-1 {
        fill: #ececec;
        fill-rule: evenodd;
      }
    </style>
  </defs>
  <path d="M22.464,19.986 L2.490,19.986 C1.111,19.986 -0.007,18.868 -0.007,17.489 L-0.007,2.508 C-0.007,1.129 1.111,0.011 2.490,0.011 L22.464,0.011 C23.843,0.011 24.961,1.129 24.961,2.508 L24.961,17.489 C24.961,18.868 23.843,19.986 22.464,19.986 ZM11.645,5.837 C11.645,5.377 11.272,5.005 10.813,5.005 L2.490,5.005 C2.030,5.005 1.658,5.377 1.658,5.837 L1.658,14.160 C1.658,14.619 2.030,14.992 2.490,14.992 L10.813,14.992 C11.272,14.992 11.645,14.619 11.645,14.160 L11.645,5.837 ZM22.464,5.837 L14.974,5.837 C14.514,5.837 14.142,6.210 14.142,6.669 C14.142,7.129 14.514,7.502 14.974,7.502 L22.464,7.502 C22.924,7.502 23.297,7.129 23.297,6.669 C23.297,6.210 22.924,5.837 22.464,5.837 ZM22.464,9.166 L14.974,9.166 C14.514,9.166 14.142,9.539 14.142,9.999 C14.142,10.458 14.514,10.831 14.974,10.831 L22.464,10.831 C22.924,10.831 23.297,10.458 23.297,9.999 C23.297,9.539 22.924,9.166 22.464,9.166 ZM22.464,12.495 L14.974,12.495 C14.514,12.495 14.142,12.868 14.142,13.327 C14.142,13.787 14.514,14.160 14.974,14.160 L22.464,14.160 C22.924,14.160 23.297,13.787 23.297,13.327 C23.297,12.868 22.924,12.495 22.464,12.495 Z" class="cls-1"/>
</svg>
