<svg xmlns="http://www.w3.org/2000/svg" xmlns:xlink="http://www.w3.org/1999/xlink" preserveAspectRatio="xMidYMid" width="24.969" height="19.97" viewBox="0 0 24.969 19.97">
  <defs>
    <style>
      .cls-1 {
        fill: #ececec;
        fill-rule: evenodd;
      }
    </style>
  </defs>
  <path d="M22.464,19.970 L2.490,19.970 C1.111,19.970 -0.007,18.852 -0.007,17.474 L-0.007,2.493 C-0.007,1.114 1.111,-0.004 2.490,-0.004 L22.464,-0.004 C23.843,-0.004 24.961,1.114 24.961,2.493 L24.961,17.474 C24.961,18.852 23.843,19.970 22.464,19.970 ZM11.645,5.822 C11.645,5.362 11.272,4.990 10.813,4.990 L2.490,4.990 C2.030,4.990 1.658,5.362 1.658,5.822 L1.658,14.144 C1.658,14.604 2.030,14.977 2.490,14.977 L10.813,14.977 C11.272,14.977 11.645,14.604 11.645,14.144 L11.645,5.822 ZM22.464,5.822 L14.974,5.822 C14.514,5.822 14.142,6.194 14.142,6.654 C14.142,7.114 14.514,7.486 14.974,7.486 L22.464,7.486 C22.924,7.486 23.297,7.114 23.297,6.654 C23.297,6.194 22.924,5.822 22.464,5.822 ZM22.464,9.151 L14.974,9.151 C14.514,9.151 14.142,9.524 14.142,9.983 C14.142,10.443 14.514,10.815 14.974,10.815 L22.464,10.815 C22.924,10.815 23.297,10.443 23.297,9.983 C23.297,9.524 22.924,9.151 22.464,9.151 ZM22.464,12.480 L14.974,12.480 C14.514,12.480 14.142,12.852 14.142,13.312 C14.142,13.772 14.514,14.144 14.974,14.144 L22.464,14.144 C22.924,14.144 23.297,13.772 23.297,13.312 C23.297,12.852 22.924,12.480 22.464,12.480 Z" class="cls-1"/>
</svg>
