<svg xmlns="http://www.w3.org/2000/svg" xmlns:xlink="http://www.w3.org/1999/xlink" preserveAspectRatio="xMidYMid" width="25.219" height="22.06" viewBox="0 0 25.219 22.06">
  <defs>
    <style>
      .cls-1 {
        fill: #ececec;
        fill-rule: evenodd;
      }
    </style>
  </defs>
  <path d="M23.633,22.069 L1.578,22.069 C0.709,22.069 0.003,21.364 0.003,20.494 L0.003,1.590 C0.003,0.720 0.709,0.015 1.578,0.015 L23.633,0.015 C24.503,0.015 25.208,0.720 25.208,1.590 L25.208,20.494 C25.208,21.364 24.503,22.069 23.633,22.069 ZM22.845,3.953 C22.845,3.083 22.140,2.378 21.270,2.378 L3.941,2.378 C3.071,2.378 2.366,3.083 2.366,3.953 L2.366,18.131 C2.366,19.001 3.071,19.706 3.941,19.706 L21.270,19.706 C22.140,19.706 22.845,19.001 22.845,18.131 L22.845,3.953 ZM7.880,11.830 L11.030,15.768 L11.818,15.768 L17.332,4.741 L22.058,18.131 L3.154,18.131 L7.880,11.830 ZM7.486,9.467 C5.963,9.467 4.729,8.233 4.729,6.710 C4.729,5.188 5.963,3.953 7.486,3.953 C9.009,3.953 10.243,5.188 10.243,6.710 C10.243,8.233 9.009,9.467 7.486,9.467 Z" class="cls-1"/>
</svg>
