<svg id="All_glyphs" data-name="All glyphs" xmlns="http://www.w3.org/2000/svg" viewBox="0 0 77.8 100"><defs><style>.cls-1{fill:#fff;}</style></defs><title>pinterest-icon</title><path class="cls-1" d="M-726.25,3779.86c-2.63,13.77-5.83,27-15.33,33.86-2.93-20.81,4.31-36.44,7.67-53-5.73-9.65.69-29.06,12.78-24.28,14.87,5.88-12.88,35.87,5.75,39.61,19.45,3.91,27.39-33.75,15.33-46-17.43-17.68-50.73-.4-46.64,24.92,1,6.19,7.39,8.07,2.55,16.61-11.15-2.47-14.48-11.27-14.05-23,.69-19.2,17.25-32.64,33.86-34.5,21-2.35,40.72,7.71,43.44,27.47,3.07,22.3-9.48,46.46-31.94,44.72C-718.92,3785.78-721.48,3782.76-726.25,3779.86Z" transform="translate(758.23 -3713.72)"/></svg>