<svg xmlns="http://www.w3.org/2000/svg" xmlns:xlink="http://www.w3.org/1999/xlink" preserveAspectRatio="xMidYMid" width="23.468" height="17.37" viewBox="0 0 23.468 17.37">
  <defs>
    <style>
      .cls-1 {
        fill: #ececec;
        fill-rule: evenodd;
      }
    </style>
  </defs>
  <path d="M0.230,12.858 C0.230,12.858 3.395,14.314 4.710,14.314 C4.710,14.314 7.216,14.986 8.870,12.825 C8.870,12.825 9.276,12.234 8.726,11.946 C8.726,11.946 3.331,10.364 3.714,9.431 C3.714,9.431 3.690,8.905 4.383,9.025 C4.383,9.025 5.164,8.249 4.781,8.011 C4.781,8.011 4.184,7.232 4.662,7.185 C4.662,7.185 5.881,7.515 6.335,7.634 C6.335,7.634 6.646,7.522 6.359,7.307 C6.072,7.091 5.563,6.670 5.658,6.575 C5.658,6.575 5.857,6.106 6.622,6.440 C6.622,6.440 6.861,6.393 6.646,6.153 C6.646,6.153 6.095,5.770 6.406,5.460 C6.406,5.460 7.282,4.828 9.505,7.529 C9.505,7.529 9.911,8.079 9.959,7.553 C9.959,7.553 11.571,0.686 14.177,0.232 C14.177,0.232 15.014,0.399 15.181,0.136 C15.181,0.136 15.905,-0.150 16.145,0.088 C16.145,0.088 16.384,0.447 16.671,0.232 C16.671,0.232 17.699,-0.175 17.388,0.495 C17.388,0.495 16.329,1.443 15.970,1.468 C15.611,1.491 15.683,1.826 15.994,1.874 C15.994,1.874 20.369,2.258 20.369,5.462 C20.369,5.462 20.620,6.223 21.433,5.434 C21.433,5.434 22.664,4.651 22.975,4.614 C22.975,4.614 23.309,4.399 23.262,4.901 C23.262,4.901 22.377,6.432 21.469,6.862 C21.469,6.862 20.919,7.555 21.708,7.412 C21.708,7.412 22.475,7.254 22.834,7.039 C22.834,7.039 23.766,6.584 23.336,7.397 C23.336,7.397 21.373,8.671 20.943,8.671 C20.943,8.671 20.656,8.743 20.656,9.005 C20.656,9.005 20.393,17.369 9.443,17.369 C9.443,17.369 3.960,17.687 0.374,13.480 C0.374,13.480 -0.319,12.738 0.230,12.858 Z" class="cls-1"/>
</svg>
