<?xml version="1.0" encoding="utf-8"?>
<!-- Generator: Adobe Illustrator 21.0.0, SVG Export Plug-In . SVG Version: 6.00 Build 0)  -->
<svg version="1.1" id="All_glyphs" xmlns="http://www.w3.org/2000/svg" xmlns:xlink="http://www.w3.org/1999/xlink" x="0px" y="0px"
	 viewBox="0 0 92 74.8" style="enable-background:new 0 0 92 74.8;" xml:space="preserve">
<style type="text/css">
	.st0{fill:#FFFFFF;}
</style>
<title>twitter-icon</title>
<path class="st0" d="M92,8.8c-3.4,1.5-7.1,2.5-10.8,3c3.9-2.4,6.9-6.1,8.3-10.4c-3.7,2.2-7.8,3.7-12,4.6c-3.6-3.8-8.6-6-13.8-6
	C53.3,0,44.8,8.4,44.8,18.9v0c0,1.4,0.2,2.9,0.5,4.3C30.1,22.4,16,15.2,6.4,3.4c-1.7,2.9-2.6,6.2-2.6,9.5c0,6.3,3.1,12.2,8.4,15.7
	c-3-0.1-5.9-0.9-8.6-2.4c0,0.1,0,0.2,0,0.2c0,9,6.3,16.7,15.1,18.5c-1.6,0.4-3.3,0.7-5,0.7c-1.2,0-2.4-0.1-3.6-0.3
	c2.5,7.7,9.6,13,17.6,13.1c-6.7,5.2-14.9,8.1-23.4,8.1c-1.5,0-3-0.1-4.5-0.3c8.6,5.5,18.7,8.5,28.9,8.5C63.6,74.8,82.6,46,82.6,21
	c0-0.8,0-1.6-0.1-2.4C86.3,15.9,89.5,12.6,92,8.8z"/>
</svg>
