<svg xmlns="http://www.w3.org/2000/svg" xmlns:xlink="http://www.w3.org/1999/xlink" preserveAspectRatio="xMidYMid" width="101.187" height="108.468" viewBox="0 0 101.187 108.468">
  <defs>
    <style>
      .cls-1 {
        fill: #fff;
        fill-rule: evenodd;
      }
    </style>
  </defs>
  <path d="M87.933,108.078 C82.331,106.577 78.993,100.802 80.492,95.206 C80.893,93.712 81.600,92.381 82.526,91.258 L69.758,73.270 C65.726,75.320 60.953,75.950 56.248,74.689 C51.199,73.336 47.170,70.059 44.738,65.860 L20.969,75.288 C21.113,76.557 21.030,77.873 20.679,79.179 C19.180,84.776 13.403,88.108 7.800,86.607 C2.198,85.106 -1.139,79.331 0.360,73.735 C1.860,68.138 7.637,64.806 13.240,66.307 C15.600,66.939 17.557,68.333 18.921,70.150 L42.689,60.723 C41.985,57.765 41.982,54.597 42.822,51.461 C45.286,42.268 54.145,36.463 63.339,37.537 L68.150,19.585 C64.155,17.254 62.034,12.460 63.286,7.787 C64.785,2.190 70.564,-1.142 76.166,0.360 C81.768,1.861 85.105,7.635 83.606,13.232 C82.354,17.904 78.119,20.996 73.495,21.017 L68.685,38.970 C77.184,42.638 81.954,52.093 79.491,61.286 C78.559,64.764 76.710,67.757 74.275,70.077 L87.042,88.063 C89.006,87.343 91.202,87.197 93.372,87.778 C98.974,89.279 102.311,95.054 100.811,100.650 C99.312,106.247 93.534,109.579 87.933,108.078 ZM11.809,71.647 C9.154,70.936 6.417,72.515 5.706,75.167 C4.995,77.819 6.577,80.555 9.231,81.266 C11.886,81.977 14.623,80.399 15.334,77.747 C16.045,75.095 14.463,72.359 11.809,71.647 ZM78.260,11.799 C78.971,9.148 77.389,6.411 74.735,5.700 C72.080,4.989 69.342,6.568 68.631,9.219 C67.921,11.871 69.503,14.608 72.157,15.319 C74.812,16.030 77.550,14.451 78.260,11.799 ZM64.633,43.397 C57.472,41.478 50.085,45.738 48.168,52.893 C46.251,60.047 50.518,67.429 57.679,69.348 C64.842,71.267 72.228,67.008 74.145,59.853 C76.062,52.698 71.795,45.316 64.633,43.397 ZM91.941,93.119 C89.287,92.408 86.548,93.986 85.838,96.638 C85.127,99.290 86.710,102.027 89.364,102.738 C92.018,103.449 94.755,101.870 95.466,99.218 C96.176,96.566 94.595,93.830 91.941,93.119 Z" class="cls-1"/>
</svg>
