<svg id="Capa_1" data-name="Capa 1" xmlns="http://www.w3.org/2000/svg" viewBox="0 0 438.53 438.54"><defs><style>.cls-1{fill:#ffe13e;}</style></defs><title>instagram-yellow</title><path class="cls-1" d="M422,16.56Q405.42,0,382.3,0H56.25Q33.12,0,16.56,16.56T0,56.24v326Q0,405.41,16.56,422t39.69,16.56h326q23.12,0,39.68-16.56t16.56-39.68v-326Q438.53,33.12,422,16.56ZM157.46,158q25.84-25,62.1-25,36.54,0,62.38,25t25.84,60.39q0,35.4-25.84,60.38t-62.38,25q-36.26,0-62.1-25t-25.84-60.38Q131.62,183,157.46,158Zm231.4,212.56A16.63,16.63,0,0,1,383.72,383a17,17,0,0,1-12.28,5H66.24a17.07,17.07,0,0,1-17.42-17.41v-185H89.08A122.94,122.94,0,0,0,83.37,223q0,54.83,40,93.51t96.22,38.68a137.24,137.24,0,0,0,68.53-17.7,133.31,133.31,0,0,0,49.68-48.11A126.51,126.51,0,0,0,356,223a123,123,0,0,0-5.71-37.4h38.55v185h0Zm0-255a19.51,19.51,0,0,1-19.71,19.7H319.48a19.5,19.5,0,0,1-19.7-19.7V68.52a19.17,19.17,0,0,1,5.71-13.85,18.8,18.8,0,0,1,14-5.85h49.68a18.78,18.78,0,0,1,14,5.85,19.15,19.15,0,0,1,5.72,13.85Z" transform="translate(0)"/></svg>