<svg id="Capa_1" data-name="Capa 1" xmlns="http://www.w3.org/2000/svg" viewBox="0 0 310.42 310.42"><defs><style>.cls-1{fill:#a4a4a4;}</style></defs><title>search-grey</title><path class="cls-1" d="M273.59,215A126,126,0,0,0,95.46,36.83c-41.66,41.66-48,103.63-18.95,152,0,0,2.08,3.5-.73,6.31L11.52,259.42C-1.28,272.21-4.32,290.1,7,301.44l2,2c11.34,11.35,29.23,8.3,42-4.49l64.13-64.13a5.38,5.38,0,0,1,6.45-.87C170,262.94,231.92,256.63,273.59,215ZM118.71,191.71a93.07,93.07,0,1,1,131.62,0A93.17,93.17,0,0,1,118.71,191.71Z" transform="translate(0 0)"/><path class="cls-1" d="M126.75,118.42a13,13,0,0,1-12-18.07A81.93,81.93,0,0,1,222,56.88a13,13,0,1,1-10.13,23.94,55.9,55.9,0,0,0-73.18,29.66A13,13,0,0,1,126.75,118.42Z" transform="translate(0 0)"/></svg>