<svg id="Layer_1" data-name="Layer 1" xmlns="http://www.w3.org/2000/svg" viewBox="0 0 300 261.2"><defs><style>.cls-1{fill:#202242;}</style></defs><title>telegram-blue</title><g id="_Group_" data-name="&lt;Group&gt;"><path id="_Compound_Path_" data-name="&lt;Compound Path&gt;" class="cls-1" d="M5.3,144.65l69.13,25.8,26.76,86a8.14,8.14,0,0,0,12.92,3.89L152.64,229a11.5,11.5,0,0,1,14-.39L236.15,279a8.15,8.15,0,0,0,12.76-4.93L299.82,29.22A8.15,8.15,0,0,0,288.91,20L5.22,129.4A8.15,8.15,0,0,0,5.3,144.65Zm91.57,12.07L232,73.5a2.35,2.35,0,0,1,2.84,3.73L123.31,180.87a23.11,23.11,0,0,0-7.16,13.83l-3.8,28.15a3.49,3.49,0,0,1-6.82.49L90.93,172A13.6,13.6,0,0,1,96.87,156.71Z" transform="translate(0 -19.4)"/></g></svg>